<mxfile host="app.diagrams.net" agent="Mozilla/5.0 (Windows NT 10.0; Win64; x64) AppleWebKit/537.36 (KHTML, like Gecko) Chrome/136.0.0.0 Safari/537.36" version="27.0.6">
  <diagram id="C5RBs43oDa-KdzZeNtuy" name="Page-1">
    <mxGraphModel dx="1603" dy="988" grid="1" gridSize="10" guides="1" tooltips="1" connect="1" arrows="1" fold="1" page="1" pageScale="1" pageWidth="827" pageHeight="1169" math="0" shadow="0">
      <root>
        <mxCell id="WIyWlLk6GJQsqaUBKTNV-0" />
        <mxCell id="WIyWlLk6GJQsqaUBKTNV-1" parent="WIyWlLk6GJQsqaUBKTNV-0" />
        <mxCell id="dzCiLew75Oaq6_TMbYSC-49" value="" style="edgeStyle=orthogonalEdgeStyle;rounded=0;orthogonalLoop=1;jettySize=auto;html=1;" edge="1" parent="WIyWlLk6GJQsqaUBKTNV-1" source="UVt2GOH293B_Dvrh5zwJ-0" target="dzCiLew75Oaq6_TMbYSC-42">
          <mxGeometry relative="1" as="geometry" />
        </mxCell>
        <mxCell id="UVt2GOH293B_Dvrh5zwJ-0" value="Deletar Hábito" style="ellipse;whiteSpace=wrap;html=1;aspect=fixed;" parent="WIyWlLk6GJQsqaUBKTNV-1" vertex="1">
          <mxGeometry x="80" y="55" width="80" height="80" as="geometry" />
        </mxCell>
        <mxCell id="dzCiLew75Oaq6_TMbYSC-10" value="&quot;Ao excluir, perderá todo o progresso do hábito.&lt;div&gt;Deseja mesmo ecluí-lo?&lt;/div&gt;&lt;div&gt;&lt;br&gt;&lt;/div&gt;&lt;div&gt;1 - SIm&lt;/div&gt;&lt;div&gt;Qualquer tecla - Não&quot;&lt;/div&gt;" style="shape=document;whiteSpace=wrap;html=1;boundedLbl=1;" vertex="1" parent="WIyWlLk6GJQsqaUBKTNV-1">
          <mxGeometry x="238.57" y="750.0799999999999" width="193.62" height="129.92" as="geometry" />
        </mxCell>
        <mxCell id="dzCiLew75Oaq6_TMbYSC-12" value="F" style="text;html=1;align=center;verticalAlign=middle;resizable=0;points=[];autosize=1;strokeColor=none;fillColor=none;" vertex="1" parent="WIyWlLk6GJQsqaUBKTNV-1">
          <mxGeometry x="261.1600000000001" y="974.0799999999999" width="30" height="30" as="geometry" />
        </mxCell>
        <mxCell id="dzCiLew75Oaq6_TMbYSC-13" value="" style="edgeStyle=orthogonalEdgeStyle;rounded=0;orthogonalLoop=1;jettySize=auto;html=1;entryX=0;entryY=0.5;entryDx=0;entryDy=0;" edge="1" parent="WIyWlLk6GJQsqaUBKTNV-1" source="dzCiLew75Oaq6_TMbYSC-15" target="dzCiLew75Oaq6_TMbYSC-18">
          <mxGeometry relative="1" as="geometry">
            <mxPoint x="425.9400000000003" y="996.0799999999999" as="targetPoint" />
          </mxGeometry>
        </mxCell>
        <mxCell id="dzCiLew75Oaq6_TMbYSC-14" style="edgeStyle=orthogonalEdgeStyle;rounded=0;orthogonalLoop=1;jettySize=auto;html=1;exitX=0;exitY=0.5;exitDx=0;exitDy=0;entryX=1;entryY=0.5;entryDx=0;entryDy=0;" edge="1" parent="WIyWlLk6GJQsqaUBKTNV-1" source="dzCiLew75Oaq6_TMbYSC-15" target="dzCiLew75Oaq6_TMbYSC-23">
          <mxGeometry relative="1" as="geometry" />
        </mxCell>
        <mxCell id="dzCiLew75Oaq6_TMbYSC-15" value="&amp;nbsp;Escolha igual a 1?" style="rhombus;whiteSpace=wrap;html=1;" vertex="1" parent="WIyWlLk6GJQsqaUBKTNV-1">
          <mxGeometry x="284.9100000000001" y="946.0799999999999" width="100.94" height="100" as="geometry" />
        </mxCell>
        <mxCell id="dzCiLew75Oaq6_TMbYSC-16" value="" style="endArrow=classic;html=1;rounded=0;entryX=0.5;entryY=0;entryDx=0;entryDy=0;exitX=0.497;exitY=0.832;exitDx=0;exitDy=0;exitPerimeter=0;" edge="1" parent="WIyWlLk6GJQsqaUBKTNV-1" source="dzCiLew75Oaq6_TMbYSC-10" target="dzCiLew75Oaq6_TMbYSC-15">
          <mxGeometry width="50" height="50" relative="1" as="geometry">
            <mxPoint x="154.12999999999988" y="686.0799999999999" as="sourcePoint" />
            <mxPoint x="204.12999999999988" y="636.0799999999999" as="targetPoint" />
          </mxGeometry>
        </mxCell>
        <mxCell id="dzCiLew75Oaq6_TMbYSC-17" value="" style="edgeStyle=orthogonalEdgeStyle;rounded=0;orthogonalLoop=1;jettySize=auto;html=1;" edge="1" parent="WIyWlLk6GJQsqaUBKTNV-1" source="dzCiLew75Oaq6_TMbYSC-18" target="dzCiLew75Oaq6_TMbYSC-20">
          <mxGeometry relative="1" as="geometry" />
        </mxCell>
        <mxCell id="dzCiLew75Oaq6_TMbYSC-18" value="Excluir hábito da visualização do usuário, e continua salvo no banco de dados para análise científica de dados, posteriormente, conforme constará nas políticas de dados e privacidade do sistema" style="whiteSpace=wrap;html=1;" vertex="1" parent="WIyWlLk6GJQsqaUBKTNV-1">
          <mxGeometry x="411.63" y="944.12" width="227.81" height="103.92" as="geometry" />
        </mxCell>
        <mxCell id="dzCiLew75Oaq6_TMbYSC-19" value="" style="edgeStyle=orthogonalEdgeStyle;rounded=0;orthogonalLoop=1;jettySize=auto;html=1;" edge="1" parent="WIyWlLk6GJQsqaUBKTNV-1" source="dzCiLew75Oaq6_TMbYSC-20" target="dzCiLew75Oaq6_TMbYSC-21">
          <mxGeometry relative="1" as="geometry" />
        </mxCell>
        <mxCell id="dzCiLew75Oaq6_TMbYSC-20" value="&quot;Seu hábito foi exlcuída com sucesso.&quot;" style="shape=document;whiteSpace=wrap;html=1;boundedLbl=1;" vertex="1" parent="WIyWlLk6GJQsqaUBKTNV-1">
          <mxGeometry x="677.32" y="956.0799999999999" width="131.25" height="80" as="geometry" />
        </mxCell>
        <mxCell id="dzCiLew75Oaq6_TMbYSC-21" value="Menu Hábitos" style="ellipse;whiteSpace=wrap;html=1;" vertex="1" parent="WIyWlLk6GJQsqaUBKTNV-1">
          <mxGeometry x="702.945" y="1074.08" width="80" height="80" as="geometry" />
        </mxCell>
        <mxCell id="dzCiLew75Oaq6_TMbYSC-22" value="" style="edgeStyle=orthogonalEdgeStyle;rounded=0;orthogonalLoop=1;jettySize=auto;html=1;" edge="1" parent="WIyWlLk6GJQsqaUBKTNV-1" source="dzCiLew75Oaq6_TMbYSC-23" target="dzCiLew75Oaq6_TMbYSC-27">
          <mxGeometry relative="1" as="geometry" />
        </mxCell>
        <mxCell id="dzCiLew75Oaq6_TMbYSC-23" value="&quot;Processo de exclusão de hábito.&lt;div&gt;Voltando ao menu hábitos...&lt;span style=&quot;color: light-dark(rgb(0, 0, 0), rgb(255, 255, 255)); background-color: transparent;&quot;&gt;&quot;&lt;/span&gt;&lt;/div&gt;" style="shape=document;whiteSpace=wrap;html=1;boundedLbl=1;" vertex="1" parent="WIyWlLk6GJQsqaUBKTNV-1">
          <mxGeometry x="128" y="935.0799999999999" width="133.16" height="122" as="geometry" />
        </mxCell>
        <mxCell id="dzCiLew75Oaq6_TMbYSC-25" value="V" style="text;html=1;align=center;verticalAlign=middle;resizable=0;points=[];autosize=1;strokeColor=none;fillColor=none;" vertex="1" parent="WIyWlLk6GJQsqaUBKTNV-1">
          <mxGeometry x="379.1299999999999" y="969.9999999999999" width="30" height="30" as="geometry" />
        </mxCell>
        <mxCell id="dzCiLew75Oaq6_TMbYSC-27" value="Menu Hábitos" style="ellipse;whiteSpace=wrap;html=1;" vertex="1" parent="WIyWlLk6GJQsqaUBKTNV-1">
          <mxGeometry x="18.000000000000142" y="956.0799999999999" width="80" height="80" as="geometry" />
        </mxCell>
        <mxCell id="dzCiLew75Oaq6_TMbYSC-28" value="&quot;Você tem certeza que quer excluir esse hábito?&lt;div&gt;&lt;br&gt;&lt;/div&gt;&lt;div&gt;1 - Sim, desejo excluir o hábito&lt;/div&gt;&lt;div&gt;Qualquer tecla - Não, desejo voltar ao menu hábitos&quot;&lt;/div&gt;" style="shape=document;whiteSpace=wrap;html=1;boundedLbl=1;" vertex="1" parent="WIyWlLk6GJQsqaUBKTNV-1">
          <mxGeometry x="248.95999999999992" y="390" width="213.21" height="132.31" as="geometry" />
        </mxCell>
        <mxCell id="dzCiLew75Oaq6_TMbYSC-29" value="V" style="text;html=1;align=center;verticalAlign=middle;resizable=0;points=[];autosize=1;strokeColor=none;fillColor=none;" vertex="1" parent="WIyWlLk6GJQsqaUBKTNV-1">
          <mxGeometry x="392.1" y="640.31" width="30" height="30" as="geometry" />
        </mxCell>
        <mxCell id="dzCiLew75Oaq6_TMbYSC-30" value="F" style="text;html=1;align=center;verticalAlign=middle;resizable=0;points=[];autosize=1;strokeColor=none;fillColor=none;" vertex="1" parent="WIyWlLk6GJQsqaUBKTNV-1">
          <mxGeometry x="261.15999999999997" y="632.3999999999999" width="30" height="30" as="geometry" />
        </mxCell>
        <mxCell id="dzCiLew75Oaq6_TMbYSC-31" value="" style="edgeStyle=orthogonalEdgeStyle;rounded=0;orthogonalLoop=1;jettySize=auto;html=1;" edge="1" parent="WIyWlLk6GJQsqaUBKTNV-1" source="dzCiLew75Oaq6_TMbYSC-32" target="dzCiLew75Oaq6_TMbYSC-33">
          <mxGeometry relative="1" as="geometry" />
        </mxCell>
        <mxCell id="dzCiLew75Oaq6_TMbYSC-39" value="" style="edgeStyle=orthogonalEdgeStyle;rounded=0;orthogonalLoop=1;jettySize=auto;html=1;" edge="1" parent="WIyWlLk6GJQsqaUBKTNV-1" target="dzCiLew75Oaq6_TMbYSC-10">
          <mxGeometry relative="1" as="geometry">
            <mxPoint x="341.5530769230769" y="712.3137932663728" as="sourcePoint" />
          </mxGeometry>
        </mxCell>
        <mxCell id="dzCiLew75Oaq6_TMbYSC-32" value="&amp;nbsp;Escolha igual a 1?" style="rhombus;whiteSpace=wrap;html=1;" vertex="1" parent="WIyWlLk6GJQsqaUBKTNV-1">
          <mxGeometry x="291.15999999999997" y="612.31" width="100.94" height="100" as="geometry" />
        </mxCell>
        <mxCell id="dzCiLew75Oaq6_TMbYSC-33" value="Menu Hábitos" style="ellipse;whiteSpace=wrap;html=1;" vertex="1" parent="WIyWlLk6GJQsqaUBKTNV-1">
          <mxGeometry x="181.15999999999997" y="622.31" width="80" height="80" as="geometry" />
        </mxCell>
        <mxCell id="dzCiLew75Oaq6_TMbYSC-34" style="edgeStyle=orthogonalEdgeStyle;rounded=0;orthogonalLoop=1;jettySize=auto;html=1;exitX=0.5;exitY=1;exitDx=0;exitDy=0;exitPerimeter=0;entryX=0.5;entryY=0;entryDx=0;entryDy=0;" edge="1" parent="WIyWlLk6GJQsqaUBKTNV-1" source="dzCiLew75Oaq6_TMbYSC-35" target="dzCiLew75Oaq6_TMbYSC-32">
          <mxGeometry relative="1" as="geometry" />
        </mxCell>
        <mxCell id="dzCiLew75Oaq6_TMbYSC-35" value="" style="verticalLabelPosition=bottom;verticalAlign=top;html=1;shape=card;whiteSpace=wrap;size=20;arcSize=12;" vertex="1" parent="WIyWlLk6GJQsqaUBKTNV-1">
          <mxGeometry x="291.15999999999974" y="532.3899999999999" width="100" height="60" as="geometry" />
        </mxCell>
        <mxCell id="dzCiLew75Oaq6_TMbYSC-36" value="" style="endArrow=classic;html=1;rounded=0;entryX=0.5;entryY=0;entryDx=0;entryDy=0;entryPerimeter=0;exitX=0.426;exitY=0.921;exitDx=0;exitDy=0;exitPerimeter=0;" edge="1" parent="WIyWlLk6GJQsqaUBKTNV-1" source="dzCiLew75Oaq6_TMbYSC-28" target="dzCiLew75Oaq6_TMbYSC-35">
          <mxGeometry width="50" height="50" relative="1" as="geometry">
            <mxPoint x="86.50999999999988" y="852.31" as="sourcePoint" />
            <mxPoint x="136.50999999999988" y="802.31" as="targetPoint" />
          </mxGeometry>
        </mxCell>
        <mxCell id="dzCiLew75Oaq6_TMbYSC-37" value="Escolha" style="text;html=1;align=center;verticalAlign=middle;whiteSpace=wrap;rounded=0;" vertex="1" parent="WIyWlLk6GJQsqaUBKTNV-1">
          <mxGeometry x="308.41999999999996" y="547.3899999999999" width="60" height="30" as="geometry" />
        </mxCell>
        <mxCell id="dzCiLew75Oaq6_TMbYSC-40" value="&quot;Qual dos hábitos abaixo você deseja excluir?&lt;div&gt;&lt;br&gt;&lt;/div&gt;&lt;div&gt;1 - Hábito 1&lt;/div&gt;&lt;div&gt;2 - Hábito 2&lt;/div&gt;&lt;div&gt;3 - Hábito 3&lt;/div&gt;&lt;div&gt;.&lt;/div&gt;&lt;div&gt;;&lt;/div&gt;&lt;div&gt;.&quot;&lt;/div&gt;" style="shape=document;whiteSpace=wrap;html=1;boundedLbl=1;" vertex="1" parent="WIyWlLk6GJQsqaUBKTNV-1">
          <mxGeometry x="340" y="10" width="260" height="170" as="geometry" />
        </mxCell>
        <mxCell id="dzCiLew75Oaq6_TMbYSC-41" value="" style="edgeStyle=orthogonalEdgeStyle;rounded=0;orthogonalLoop=1;jettySize=auto;html=1;" edge="1" parent="WIyWlLk6GJQsqaUBKTNV-1" source="dzCiLew75Oaq6_TMbYSC-42" target="dzCiLew75Oaq6_TMbYSC-40">
          <mxGeometry relative="1" as="geometry" />
        </mxCell>
        <mxCell id="dzCiLew75Oaq6_TMbYSC-42" value="Sistema busca nome dos hábitos na lista do banco de dados para apresentá-los no espaço adequado a seguir" style="rounded=0;whiteSpace=wrap;html=1;" vertex="1" parent="WIyWlLk6GJQsqaUBKTNV-1">
          <mxGeometry x="190" y="50" width="120" height="90" as="geometry" />
        </mxCell>
        <mxCell id="dzCiLew75Oaq6_TMbYSC-50" value="" style="edgeStyle=orthogonalEdgeStyle;rounded=0;orthogonalLoop=1;jettySize=auto;html=1;" edge="1" parent="WIyWlLk6GJQsqaUBKTNV-1" source="dzCiLew75Oaq6_TMbYSC-43" target="dzCiLew75Oaq6_TMbYSC-28">
          <mxGeometry relative="1" as="geometry" />
        </mxCell>
        <mxCell id="dzCiLew75Oaq6_TMbYSC-43" value="Busca o hábito na posição correspondente da lista ao número - 1" style="rounded=0;whiteSpace=wrap;html=1;" vertex="1" parent="WIyWlLk6GJQsqaUBKTNV-1">
          <mxGeometry x="301.63" y="270" width="120" height="90" as="geometry" />
        </mxCell>
        <mxCell id="dzCiLew75Oaq6_TMbYSC-44" value="" style="group" vertex="1" connectable="0" parent="WIyWlLk6GJQsqaUBKTNV-1">
          <mxGeometry x="420" y="170" width="100" height="60" as="geometry" />
        </mxCell>
        <mxCell id="dzCiLew75Oaq6_TMbYSC-45" value="" style="verticalLabelPosition=bottom;verticalAlign=top;html=1;shape=card;whiteSpace=wrap;size=20;arcSize=12;" vertex="1" parent="dzCiLew75Oaq6_TMbYSC-44">
          <mxGeometry width="100" height="60" as="geometry" />
        </mxCell>
        <mxCell id="dzCiLew75Oaq6_TMbYSC-46" value="Escolha" style="text;html=1;align=center;verticalAlign=middle;whiteSpace=wrap;rounded=0;" vertex="1" parent="dzCiLew75Oaq6_TMbYSC-44">
          <mxGeometry x="20" y="15" width="60" height="30" as="geometry" />
        </mxCell>
        <mxCell id="dzCiLew75Oaq6_TMbYSC-47" value="" style="endArrow=classic;html=1;rounded=0;entryX=0.5;entryY=0;entryDx=0;entryDy=0;exitX=0.5;exitY=1;exitDx=0;exitDy=0;exitPerimeter=0;" edge="1" parent="WIyWlLk6GJQsqaUBKTNV-1" source="dzCiLew75Oaq6_TMbYSC-45" target="dzCiLew75Oaq6_TMbYSC-43">
          <mxGeometry width="50" height="50" relative="1" as="geometry">
            <mxPoint x="310" y="300" as="sourcePoint" />
            <mxPoint x="360" y="250" as="targetPoint" />
            <Array as="points">
              <mxPoint x="470" y="240" />
              <mxPoint x="362" y="240" />
            </Array>
          </mxGeometry>
        </mxCell>
        <mxCell id="dzCiLew75Oaq6_TMbYSC-48" value="" style="endArrow=classic;html=1;rounded=0;entryX=0.5;entryY=0;entryDx=0;entryDy=0;entryPerimeter=0;exitX=0.504;exitY=0.86;exitDx=0;exitDy=0;exitPerimeter=0;" edge="1" parent="WIyWlLk6GJQsqaUBKTNV-1" source="dzCiLew75Oaq6_TMbYSC-40" target="dzCiLew75Oaq6_TMbYSC-45">
          <mxGeometry width="50" height="50" relative="1" as="geometry">
            <mxPoint x="410" y="350" as="sourcePoint" />
            <mxPoint x="460" y="300" as="targetPoint" />
          </mxGeometry>
        </mxCell>
      </root>
    </mxGraphModel>
  </diagram>
</mxfile>
